<svg xmlns="http://www.w3.org/2000/svg" viewBox="0 0 800 1200">
<defs>
<filter id="soft" x="-100%" y="-100%" width="300%" height="300%"><feGaussianBlur stdDeviation="10"/></filter>
<filter id="soft2" x="-100%" y="-100%" width="300%" height="300%"><feGaussianBlur stdDeviation="3"/></filter>
<filter id="grain"><feTurbulence type="fractalNoise" baseFrequency="0.9" numOctaves="2" stitchTiles="stitch"/><feColorMatrix type="saturate" values="0"/></filter>
<pattern id="scan" width="4" height="4" patternUnits="userSpaceOnUse"><rect width="4" height="1" fill="#000" opacity="0.14"/></pattern>
<radialGradient id="vig" cx="50%" cy="42%" r="78%"><stop offset="55%" stop-color="#000" stop-opacity="0"/><stop offset="100%" stop-color="#000" stop-opacity="0.55"/></radialGradient>
<linearGradient id="bgs" x1="0" y1="0" x2="0" y2="1"><stop offset="0" stop-color="#010c10"/><stop offset="1" stop-color="#04303a"/></linearGradient>
<radialGradient id="planet" cx="50%" cy="0%" r="90%"><stop offset="0" stop-color="#0e6577"/><stop offset="0.5" stop-color="#093d49"/><stop offset="1" stop-color="#052228"/></radialGradient></defs>

<rect width="800" height="1200" fill="url(#bgs)"/>
<circle cx="680.8" cy="244.2" r="1.32" fill="#fff" opacity="0.56"/><circle cx="681.6" cy="236.1" r="1.76" fill="#fff" opacity="0.48"/><circle cx="46.1" cy="340.6" r="1.63" fill="#fff" opacity="0.40"/><circle cx="273.2" cy="459.2" r="0.95" fill="#fff" opacity="0.31"/><circle cx="210.3" cy="342.4" r="1.60" fill="#fff" opacity="0.38"/><circle cx="212.7" cy="259.4" r="0.65" fill="#fff" opacity="0.44"/><circle cx="120.6" cy="229.6" r="0.79" fill="#fff" opacity="0.18"/><circle cx="680.7" cy="86.2" r="0.35" fill="#fff" opacity="0.65"/><circle cx="383.7" cy="239.1" r="1.51" fill="#fff" opacity="0.31"/><circle cx="574.9" cy="219.7" r="1.19" fill="#fff" opacity="0.28"/><circle cx="153.3" cy="344.1" r="1.17" fill="#fff" opacity="0.35"/><circle cx="701.8" cy="342.4" r="0.67" fill="#fff" opacity="0.18"/><circle cx="187.4" cy="0.5" r="1.07" fill="#fff" opacity="0.29"/><circle cx="450.2" cy="60.6" r="0.93" fill="#fff" opacity="0.81"/><circle cx="616.8" cy="187.9" r="1.63" fill="#fff" opacity="0.22"/><circle cx="160.3" cy="271.0" r="1.75" fill="#fff" opacity="0.83"/><circle cx="478.1" cy="462.5" r="0.75" fill="#fff" opacity="0.60"/><circle cx="233.9" cy="291.5" r="0.76" fill="#fff" opacity="0.35"/><circle cx="737.9" cy="302.3" r="0.74" fill="#fff" opacity="0.31"/><circle cx="770.8" cy="170.5" r="1.46" fill="#fff" opacity="0.26"/><circle cx="308.1" cy="295.0" r="0.76" fill="#fff" opacity="0.77"/><circle cx="554.7" cy="292.6" r="1.71" fill="#fff" opacity="0.18"/><circle cx="746.1" cy="131.0" r="1.13" fill="#fff" opacity="0.20"/><circle cx="735.6" cy="292.7" r="0.71" fill="#fff" opacity="0.58"/><circle cx="227.1" cy="300.2" r="1.18" fill="#fff" opacity="0.29"/><circle cx="213.1" cy="410.2" r="0.81" fill="#fff" opacity="0.18"/><circle cx="780.5" cy="239.5" r="1.70" fill="#fff" opacity="0.75"/><circle cx="383.7" cy="349.4" r="0.57" fill="#fff" opacity="0.32"/><circle cx="216.7" cy="460.0" r="1.89" fill="#fff" opacity="0.29"/><circle cx="74.5" cy="257.7" r="1.08" fill="#fff" opacity="0.77"/><circle cx="183.4" cy="230.8" r="1.66" fill="#fff" opacity="0.43"/><circle cx="169.5" cy="66.3" r="0.83" fill="#fff" opacity="0.68"/><circle cx="766.6" cy="160.8" r="1.59" fill="#fff" opacity="0.63"/><circle cx="523.3" cy="421.3" r="1.27" fill="#fff" opacity="0.21"/><circle cx="86.1" cy="405.2" r="1.60" fill="#fff" opacity="0.84"/><circle cx="762.6" cy="71.8" r="1.44" fill="#fff" opacity="0.30"/><circle cx="519.4" cy="124.4" r="1.78" fill="#fff" opacity="0.86"/><circle cx="14.4" cy="206.2" r="0.33" fill="#fff" opacity="0.16"/><circle cx="496.3" cy="45.5" r="0.84" fill="#fff" opacity="0.60"/><circle cx="404.3" cy="409.7" r="1.23" fill="#fff" opacity="0.72"/><circle cx="564.9" cy="301.1" r="0.42" fill="#fff" opacity="0.59"/><circle cx="7.6" cy="315.0" r="0.73" fill="#fff" opacity="0.29"/><circle cx="399.5" cy="45.5" r="0.55" fill="#fff" opacity="0.53"/><circle cx="198.3" cy="120.4" r="1.68" fill="#fff" opacity="0.79"/><circle cx="201.5" cy="316.5" r="0.36" fill="#fff" opacity="0.46"/><circle cx="618.2" cy="341.3" r="0.48" fill="#fff" opacity="0.80"/><circle cx="394.2" cy="355.5" r="1.44" fill="#fff" opacity="0.22"/><circle cx="522.7" cy="320.9" r="1.40" fill="#fff" opacity="0.59"/><circle cx="301.3" cy="138.0" r="0.97" fill="#fff" opacity="0.60"/><circle cx="557.7" cy="165.6" r="1.73" fill="#fff" opacity="0.45"/><circle cx="780.5" cy="230.1" r="1.62" fill="#fff" opacity="0.78"/><circle cx="372.6" cy="93.3" r="1.73" fill="#fff" opacity="0.72"/><circle cx="131.1" cy="309.9" r="1.87" fill="#fff" opacity="0.28"/><circle cx="80.2" cy="106.0" r="0.55" fill="#fff" opacity="0.36"/><circle cx="758.4" cy="183.1" r="0.52" fill="#fff" opacity="0.74"/><circle cx="450.9" cy="276.2" r="0.97" fill="#fff" opacity="0.75"/><circle cx="197.7" cy="437.9" r="1.11" fill="#fff" opacity="0.48"/><circle cx="0.7" cy="441.5" r="0.89" fill="#fff" opacity="0.38"/><circle cx="386.9" cy="68.8" r="0.96" fill="#fff" opacity="0.44"/><circle cx="324.3" cy="436.3" r="1.29" fill="#fff" opacity="0.44"/><circle cx="653.9" cy="234.7" r="0.35" fill="#fff" opacity="0.87"/><circle cx="422.6" cy="241.3" r="1.15" fill="#fff" opacity="0.89"/><circle cx="720.1" cy="392.8" r="0.52" fill="#fff" opacity="0.76"/><circle cx="26.4" cy="444.8" r="0.40" fill="#fff" opacity="0.61"/><circle cx="394.9" cy="302.7" r="0.66" fill="#fff" opacity="0.42"/><circle cx="590.8" cy="142.8" r="1.83" fill="#fff" opacity="0.81"/><circle cx="508.5" cy="287.1" r="0.76" fill="#fff" opacity="0.27"/><circle cx="203.7" cy="240.2" r="0.46" fill="#fff" opacity="0.38"/><circle cx="722.2" cy="328.3" r="0.88" fill="#fff" opacity="0.63"/><circle cx="223.6" cy="12.0" r="0.36" fill="#fff" opacity="0.20"/>
<circle cx="140" cy="150" r="58" fill="#fda4af" opacity="0.35" filter="url(#soft)"/>
<circle cx="140" cy="150" r="30" fill="#fda4af" opacity="0.9"/>
<circle cx="660" cy="110" r="34" fill="#bae6fd" opacity="0.3" filter="url(#soft)"/>
<circle cx="660" cy="110" r="17" fill="#bae6fd" opacity="0.9"/>
<circle cx="400" cy="1500" r="980" fill="url(#planet)"/>
<ellipse cx="400" cy="522" rx="500" ry="26" fill="#5eead4" opacity="0.22" filter="url(#soft)"/>
<path d="M-20,560 C180,534 380,582 560,546 S780,568 820,556" fill="none" stroke="#5eead4" stroke-width="2" opacity="0.16"/><path d="M-20,632 C180,606 380,654 560,618 S780,640 820,628" fill="none" stroke="#5eead4" stroke-width="2" opacity="0.21"/><path d="M-20,704 C180,678 380,726 560,690 S780,712 820,700" fill="none" stroke="#5eead4" stroke-width="2" opacity="0.25"/><path d="M-20,776 C180,750 380,798 560,762 S780,784 820,772" fill="none" stroke="#5eead4" stroke-width="2" opacity="0.30"/><path d="M-20,848 C180,822 380,870 560,834 S780,856 820,844" fill="none" stroke="#5eead4" stroke-width="2" opacity="0.34"/><path d="M-20,920 C180,894 380,942 560,906 S780,928 820,916" fill="none" stroke="#5eead4" stroke-width="2" opacity="0.39"/><path d="M-20,992 C180,966 380,1014 560,978 S780,1000 820,988" fill="none" stroke="#5eead4" stroke-width="2" opacity="0.43"/><path d="M-20,1064 C180,1038 380,1086 560,1050 S780,1072 820,1060" fill="none" stroke="#5eead4" stroke-width="2" opacity="0.47"/>
<path d="M300,780 a70,40 0 1,1 60,60 a50,28 0 1,0 -60,-60" fill="none" stroke="#99f6e4" stroke-width="2" opacity="0.5" filter="url(#soft2)"/>
<path d="M520,950 a55,32 0 1,1 46,46 a38,22 0 1,0 -46,-46" fill="none" stroke="#99f6e4" stroke-width="2" opacity="0.4" filter="url(#soft2)"/>
<ellipse cx="600" cy="1080" rx="80" ry="36" fill="#0b5563" stroke="#5eead4" stroke-width="1.5" opacity="0.7"/>
<rect width="800" height="1200" filter="url(#grain)" opacity="0.07"/>
<rect width="800" height="1200" fill="url(#scan)" opacity="0.5"/>
<rect width="800" height="1200" fill="url(#vig)"/>
</svg>
