<svg xmlns="http://www.w3.org/2000/svg" viewBox="0 0 800 1200" role="img" aria-label="Portada abstracta de Neuromante (Neuromancer)">
<defs>
  <radialGradient id="bg" cx="50%" cy="38%" r="78%"><stop stop-color="hsl(305 42% 20%)"/><stop offset="1" stop-color="#050507"/></radialGradient>
  <linearGradient id="shape" x1="0" y1="0" x2="1" y2="1"><stop stop-color="hsl(305 72% 64%)"/><stop offset="1" stop-color="hsl(49 76% 52%)"/></linearGradient>
  <filter id="glow"><feGaussianBlur stdDeviation="13" result="b"/><feMerge><feMergeNode in="b"/><feMergeNode in="SourceGraphic"/></feMerge></filter>
  <filter id="grain"><feTurbulence baseFrequency=".82" numOctaves="3"/><feColorMatrix type="saturate" values="0"/></filter>
  <style>.cut{fill:#050507}</style>
</defs>
<rect width="800" height="1200" fill="url(#bg)"/>
<g fill="hsl(49 70% 84%)"><circle cx="421" cy="567" r="1.1" opacity="0.37"/><circle cx="192" cy="65" r="1.1" opacity="0.76"/><circle cx="576" cy="148" r="2.0" opacity="0.19"/><circle cx="358" cy="549" r="1.0" opacity="0.31"/><circle cx="132" cy="462" r="1.0" opacity="0.40"/><circle cx="367" cy="744" r="2.2" opacity="0.50"/><circle cx="130" cy="36" r="2.4" opacity="0.69"/><circle cx="101" cy="258" r="2.0" opacity="0.58"/><circle cx="14" cy="652" r="0.6" opacity="0.74"/><circle cx="600" cy="648" r="2.2" opacity="0.36"/><circle cx="79" cy="271" r="0.6" opacity="0.28"/><circle cx="223" cy="641" r="1.6" opacity="0.55"/><circle cx="190" cy="220" r="0.9" opacity="0.24"/><circle cx="769" cy="136" r="1.4" opacity="0.58"/><circle cx="435" cy="302" r="2.3" opacity="0.53"/><circle cx="695" cy="642" r="1.9" opacity="0.76"/><circle cx="32" cy="398" r="1.5" opacity="0.81"/><circle cx="444" cy="433" r="0.7" opacity="0.48"/><circle cx="311" cy="196" r="0.5" opacity="0.57"/><circle cx="666" cy="600" r="0.4" opacity="0.68"/><circle cx="364" cy="7" r="2.3" opacity="0.42"/><circle cx="508" cy="738" r="0.6" opacity="0.37"/><circle cx="80" cy="677" r="0.4" opacity="0.61"/><circle cx="432" cy="135" r="0.7" opacity="0.23"/><circle cx="494" cy="515" r="1.2" opacity="0.21"/><circle cx="529" cy="771" r="0.7" opacity="0.63"/><circle cx="286" cy="78" r="0.6" opacity="0.19"/><circle cx="15" cy="181" r="2.3" opacity="0.82"/><circle cx="648" cy="0" r="2.2" opacity="0.57"/><circle cx="559" cy="374" r="2.0" opacity="0.41"/><circle cx="4" cy="24" r="1.3" opacity="0.41"/><circle cx="487" cy="224" r="0.6" opacity="0.41"/><circle cx="640" cy="751" r="1.0" opacity="0.28"/><circle cx="105" cy="728" r="1.4" opacity="0.44"/><circle cx="206" cy="755" r="2.2" opacity="0.37"/><circle cx="796" cy="50" r="1.4" opacity="0.81"/><circle cx="394" cy="751" r="1.2" opacity="0.38"/><circle cx="740" cy="532" r="2.3" opacity="0.60"/><circle cx="686" cy="151" r="1.1" opacity="0.73"/><circle cx="770" cy="419" r="2.3" opacity="0.51"/><circle cx="527" cy="519" r="0.9" opacity="0.64"/><circle cx="68" cy="289" r="1.6" opacity="0.26"/><circle cx="695" cy="52" r="1.5" opacity="0.53"/><circle cx="54" cy="496" r="1.4" opacity="0.39"/><circle cx="96" cy="58" r="2.3" opacity="0.25"/><circle cx="316" cy="373" r="2.0" opacity="0.63"/><circle cx="424" cy="565" r="2.1" opacity="0.81"/><circle cx="762" cy="440" r="1.9" opacity="0.39"/><circle cx="768" cy="101" r="1.0" opacity="0.27"/><circle cx="689" cy="733" r="1.9" opacity="0.39"/><circle cx="155" cy="732" r="0.8" opacity="0.53"/><circle cx="259" cy="434" r="1.8" opacity="0.52"/><circle cx="754" cy="82" r="0.6" opacity="0.21"/><circle cx="220" cy="508" r="1.7" opacity="0.56"/><circle cx="288" cy="602" r="2.1" opacity="0.40"/><circle cx="194" cy="46" r="1.9" opacity="0.21"/><circle cx="520" cy="731" r="0.6" opacity="0.65"/><circle cx="767" cy="131" r="0.8" opacity="0.56"/><circle cx="712" cy="241" r="2.2" opacity="0.43"/><circle cx="653" cy="25" r="1.8" opacity="0.24"/><circle cx="103" cy="46" r="0.9" opacity="0.56"/><circle cx="376" cy="282" r="2.3" opacity="0.80"/><circle cx="661" cy="335" r="1.1" opacity="0.52"/><circle cx="316" cy="104" r="1.9" opacity="0.34"/><circle cx="480" cy="648" r="1.1" opacity="0.23"/><circle cx="782" cy="570" r="1.9" opacity="0.43"/><circle cx="790" cy="610" r="0.7" opacity="0.29"/><circle cx="567" cy="183" r="1.0" opacity="0.43"/><circle cx="5" cy="120" r="1.6" opacity="0.29"/><circle cx="315" cy="219" r="1.2" opacity="0.86"/><circle cx="91" cy="390" r="1.5" opacity="0.49"/><circle cx="286" cy="738" r="0.6" opacity="0.85"/><circle cx="475" cy="673" r="1.5" opacity="0.37"/><circle cx="532" cy="332" r="1.8" opacity="0.86"/><circle cx="785" cy="275" r="1.1" opacity="0.26"/></g>
<g fill="none" stroke="hsl(49 75% 68%)" stroke-width="2" opacity=".45"><ellipse cx="400" cy="520" rx="171" ry="49" transform="rotate(16 400 520)"/><ellipse cx="400" cy="520" rx="231" ry="67" transform="rotate(16 400 520)"/><ellipse cx="400" cy="520" rx="306" ry="97" transform="rotate(-30 400 520)"/><ellipse cx="400" cy="520" rx="367" ry="126" transform="rotate(25 400 520)"/></g>
<g fill="url(#shape)" opacity=".82" filter="url(#glow)"><rect x="257" y="250" width="292" height="560" rx="32" transform="rotate(2 400 530)"/></g>
<path d="M0 942 Q200 842 400 902 T800 892V1200H0Z" fill="#07070a" opacity=".9"/>
<g fill="none" stroke="hsl(305 68% 65%)" opacity=".3"><path d="M0 980H800"/><path d="M0 1000H800"/><path d="M0 1025H800"/></g>
<rect width="800" height="1200" filter="url(#grain)" opacity=".065"/>
</svg>