<svg xmlns="http://www.w3.org/2000/svg" viewBox="0 0 800 1200" role="img" aria-label="Portada abstracta de El uso de las armas (Use of Weapons)">
<defs>
  <radialGradient id="bg" cx="50%" cy="38%" r="78%"><stop stop-color="hsl(260 42% 20%)"/><stop offset="1" stop-color="#050507"/></radialGradient>
  <linearGradient id="shape" x1="0" y1="0" x2="1" y2="1"><stop stop-color="hsl(260 72% 64%)"/><stop offset="1" stop-color="hsl(306 76% 52%)"/></linearGradient>
  <filter id="glow"><feGaussianBlur stdDeviation="13" result="b"/><feMerge><feMergeNode in="b"/><feMergeNode in="SourceGraphic"/></feMerge></filter>
  <filter id="grain"><feTurbulence baseFrequency=".82" numOctaves="3"/><feColorMatrix type="saturate" values="0"/></filter>
  <style>.cut{fill:#050507}</style>
</defs>
<rect width="800" height="1200" fill="url(#bg)"/>
<g fill="hsl(306 70% 84%)"><circle cx="363" cy="577" r="2.3" opacity="0.67"/><circle cx="655" cy="309" r="0.9" opacity="0.57"/><circle cx="583" cy="197" r="0.8" opacity="0.79"/><circle cx="558" cy="398" r="1.0" opacity="0.24"/><circle cx="428" cy="765" r="2.4" opacity="0.23"/><circle cx="58" cy="464" r="1.0" opacity="0.25"/><circle cx="794" cy="742" r="1.9" opacity="0.56"/><circle cx="615" cy="716" r="0.4" opacity="0.44"/><circle cx="653" cy="289" r="1.6" opacity="0.41"/><circle cx="490" cy="146" r="2.0" opacity="0.54"/><circle cx="253" cy="177" r="1.5" opacity="0.36"/><circle cx="88" cy="445" r="0.9" opacity="0.52"/><circle cx="771" cy="735" r="1.7" opacity="0.77"/><circle cx="688" cy="256" r="1.4" opacity="0.71"/><circle cx="484" cy="160" r="1.9" opacity="0.55"/><circle cx="305" cy="112" r="0.7" opacity="0.54"/><circle cx="588" cy="764" r="1.7" opacity="0.70"/><circle cx="397" cy="358" r="1.9" opacity="0.50"/><circle cx="174" cy="568" r="1.5" opacity="0.74"/><circle cx="477" cy="229" r="1.0" opacity="0.25"/><circle cx="87" cy="260" r="0.7" opacity="0.41"/><circle cx="795" cy="703" r="1.3" opacity="0.34"/><circle cx="237" cy="679" r="2.2" opacity="0.22"/><circle cx="468" cy="604" r="0.9" opacity="0.28"/><circle cx="203" cy="294" r="1.0" opacity="0.35"/><circle cx="500" cy="661" r="0.8" opacity="0.66"/><circle cx="337" cy="377" r="0.7" opacity="0.53"/><circle cx="261" cy="412" r="1.3" opacity="0.77"/><circle cx="156" cy="212" r="1.9" opacity="0.82"/><circle cx="153" cy="618" r="1.2" opacity="0.45"/><circle cx="623" cy="410" r="1.6" opacity="0.29"/><circle cx="277" cy="3" r="2.1" opacity="0.61"/><circle cx="184" cy="627" r="2.1" opacity="0.28"/><circle cx="605" cy="528" r="2.0" opacity="0.68"/><circle cx="717" cy="712" r="1.2" opacity="0.73"/><circle cx="188" cy="238" r="0.9" opacity="0.53"/><circle cx="343" cy="690" r="1.9" opacity="0.34"/><circle cx="650" cy="474" r="2.2" opacity="0.49"/><circle cx="213" cy="439" r="1.7" opacity="0.19"/><circle cx="271" cy="769" r="1.9" opacity="0.40"/><circle cx="165" cy="364" r="1.1" opacity="0.34"/><circle cx="10" cy="390" r="1.5" opacity="0.33"/><circle cx="169" cy="325" r="0.9" opacity="0.78"/><circle cx="682" cy="631" r="1.2" opacity="0.52"/><circle cx="178" cy="152" r="1.0" opacity="0.34"/><circle cx="382" cy="295" r="0.7" opacity="0.46"/><circle cx="770" cy="126" r="0.7" opacity="0.20"/><circle cx="226" cy="779" r="2.1" opacity="0.62"/><circle cx="174" cy="573" r="0.8" opacity="0.24"/><circle cx="450" cy="660" r="1.9" opacity="0.84"/><circle cx="733" cy="429" r="0.8" opacity="0.65"/><circle cx="247" cy="607" r="1.0" opacity="0.52"/><circle cx="634" cy="357" r="1.9" opacity="0.69"/><circle cx="214" cy="663" r="0.5" opacity="0.57"/><circle cx="84" cy="374" r="1.7" opacity="0.37"/><circle cx="579" cy="317" r="0.6" opacity="0.34"/><circle cx="97" cy="616" r="0.8" opacity="0.32"/><circle cx="84" cy="472" r="2.3" opacity="0.80"/><circle cx="183" cy="33" r="1.8" opacity="0.25"/><circle cx="195" cy="269" r="2.0" opacity="0.75"/><circle cx="513" cy="606" r="0.6" opacity="0.25"/><circle cx="84" cy="304" r="1.6" opacity="0.65"/><circle cx="427" cy="67" r="1.5" opacity="0.78"/><circle cx="60" cy="539" r="1.8" opacity="0.32"/><circle cx="583" cy="607" r="1.1" opacity="0.68"/><circle cx="670" cy="229" r="1.2" opacity="0.35"/><circle cx="756" cy="214" r="1.6" opacity="0.69"/><circle cx="217" cy="538" r="1.0" opacity="0.38"/><circle cx="142" cy="519" r="0.5" opacity="0.36"/><circle cx="704" cy="501" r="0.9" opacity="0.25"/><circle cx="379" cy="621" r="0.7" opacity="0.83"/><circle cx="695" cy="107" r="1.8" opacity="0.49"/><circle cx="498" cy="357" r="1.6" opacity="0.68"/><circle cx="656" cy="131" r="1.5" opacity="0.76"/><circle cx="609" cy="130" r="0.9" opacity="0.67"/></g>
<g fill="none" stroke="hsl(306 75% 68%)" stroke-width="2" opacity=".45"><ellipse cx="400" cy="520" rx="145" ry="55" transform="rotate(-11 400 520)"/><ellipse cx="400" cy="520" rx="205" ry="78" transform="rotate(-33 400 520)"/><ellipse cx="400" cy="520" rx="289" ry="92" transform="rotate(18 400 520)"/><ellipse cx="400" cy="520" rx="346" ry="123" transform="rotate(20 400 520)"/></g>
<g fill="url(#shape)" opacity=".82" filter="url(#glow)"><path d="M70 690 Q400 148 730 690 Q400 862 70 690Z"/><circle class="cut" cx="400" cy="570" r="90"/></g>
<path d="M0 898 Q200 838 400 938 T800 888V1200H0Z" fill="#07070a" opacity=".9"/>
<g fill="none" stroke="hsl(260 68% 65%)" opacity=".3"><path d="M0 980H800"/><path d="M0 1000H800"/><path d="M0 1025H800"/></g>
<rect width="800" height="1200" filter="url(#grain)" opacity=".065"/>
</svg>