<svg xmlns="http://www.w3.org/2000/svg" viewBox="0 0 800 1200" role="img" aria-label="Portada abstracta de Diáspora">
<defs>
  <radialGradient id="bg" cx="50%" cy="38%" r="78%"><stop stop-color="hsl(82 42% 20%)"/><stop offset="1" stop-color="#050507"/></radialGradient>
  <linearGradient id="shape" x1="0" y1="0" x2="1" y2="1"><stop stop-color="hsl(82 72% 64%)"/><stop offset="1" stop-color="hsl(142 76% 52%)"/></linearGradient>
  <filter id="glow"><feGaussianBlur stdDeviation="13" result="b"/><feMerge><feMergeNode in="b"/><feMergeNode in="SourceGraphic"/></feMerge></filter>
  <filter id="grain"><feTurbulence baseFrequency=".82" numOctaves="3"/><feColorMatrix type="saturate" values="0"/></filter>
  <style>.cut{fill:#050507}</style>
</defs>
<rect width="800" height="1200" fill="url(#bg)"/>
<g fill="hsl(142 70% 84%)"><circle cx="520" cy="378" r="1.1" opacity="0.72"/><circle cx="29" cy="303" r="2.3" opacity="0.42"/><circle cx="644" cy="719" r="0.8" opacity="0.40"/><circle cx="238" cy="640" r="0.5" opacity="0.60"/><circle cx="34" cy="327" r="2.2" opacity="0.58"/><circle cx="41" cy="411" r="1.7" opacity="0.21"/><circle cx="398" cy="326" r="2.0" opacity="0.84"/><circle cx="4" cy="693" r="1.6" opacity="0.85"/><circle cx="21" cy="34" r="1.8" opacity="0.61"/><circle cx="292" cy="495" r="2.1" opacity="0.49"/><circle cx="624" cy="3" r="0.4" opacity="0.56"/><circle cx="64" cy="175" r="1.5" opacity="0.28"/><circle cx="81" cy="524" r="0.5" opacity="0.24"/><circle cx="643" cy="554" r="0.7" opacity="0.51"/><circle cx="177" cy="546" r="2.4" opacity="0.26"/><circle cx="155" cy="632" r="1.0" opacity="0.85"/><circle cx="751" cy="748" r="2.2" opacity="0.39"/><circle cx="713" cy="382" r="1.9" opacity="0.31"/><circle cx="321" cy="675" r="2.0" opacity="0.45"/><circle cx="241" cy="3" r="2.1" opacity="0.27"/><circle cx="428" cy="251" r="0.6" opacity="0.19"/><circle cx="31" cy="221" r="0.8" opacity="0.77"/><circle cx="58" cy="168" r="1.4" opacity="0.55"/><circle cx="585" cy="219" r="1.1" opacity="0.31"/><circle cx="222" cy="635" r="1.8" opacity="0.84"/><circle cx="506" cy="36" r="2.3" opacity="0.37"/><circle cx="148" cy="51" r="2.1" opacity="0.63"/><circle cx="363" cy="552" r="2.1" opacity="0.59"/><circle cx="681" cy="133" r="0.6" opacity="0.24"/><circle cx="693" cy="723" r="1.9" opacity="0.60"/><circle cx="406" cy="67" r="2.4" opacity="0.59"/><circle cx="731" cy="25" r="1.4" opacity="0.71"/><circle cx="577" cy="95" r="0.6" opacity="0.79"/><circle cx="703" cy="310" r="1.1" opacity="0.67"/><circle cx="785" cy="554" r="0.8" opacity="0.49"/><circle cx="392" cy="172" r="2.2" opacity="0.30"/><circle cx="507" cy="162" r="2.1" opacity="0.43"/><circle cx="286" cy="615" r="0.6" opacity="0.78"/><circle cx="743" cy="15" r="0.9" opacity="0.41"/><circle cx="19" cy="723" r="0.9" opacity="0.63"/><circle cx="661" cy="378" r="1.6" opacity="0.29"/><circle cx="249" cy="243" r="1.0" opacity="0.20"/><circle cx="508" cy="82" r="1.5" opacity="0.36"/><circle cx="224" cy="116" r="1.4" opacity="0.57"/><circle cx="164" cy="627" r="2.1" opacity="0.51"/><circle cx="86" cy="678" r="0.6" opacity="0.55"/><circle cx="678" cy="581" r="1.8" opacity="0.54"/><circle cx="467" cy="221" r="1.5" opacity="0.53"/><circle cx="286" cy="632" r="0.8" opacity="0.39"/><circle cx="369" cy="710" r="1.4" opacity="0.36"/><circle cx="545" cy="27" r="0.8" opacity="0.54"/><circle cx="244" cy="768" r="1.3" opacity="0.60"/><circle cx="789" cy="642" r="0.9" opacity="0.82"/><circle cx="389" cy="350" r="1.7" opacity="0.76"/><circle cx="391" cy="504" r="2.0" opacity="0.78"/><circle cx="209" cy="117" r="0.5" opacity="0.30"/><circle cx="488" cy="365" r="2.3" opacity="0.36"/><circle cx="443" cy="86" r="0.9" opacity="0.26"/><circle cx="503" cy="532" r="0.7" opacity="0.59"/><circle cx="680" cy="168" r="1.2" opacity="0.54"/><circle cx="47" cy="106" r="0.7" opacity="0.85"/><circle cx="624" cy="42" r="2.3" opacity="0.76"/><circle cx="185" cy="455" r="0.5" opacity="0.61"/><circle cx="185" cy="284" r="1.9" opacity="0.37"/><circle cx="368" cy="63" r="1.1" opacity="0.36"/><circle cx="355" cy="554" r="1.6" opacity="0.65"/><circle cx="510" cy="567" r="2.1" opacity="0.39"/><circle cx="194" cy="559" r="1.9" opacity="0.68"/><circle cx="467" cy="399" r="2.2" opacity="0.39"/><circle cx="83" cy="393" r="0.7" opacity="0.59"/><circle cx="524" cy="282" r="1.2" opacity="0.54"/><circle cx="54" cy="320" r="2.0" opacity="0.84"/><circle cx="516" cy="196" r="0.6" opacity="0.68"/><circle cx="260" cy="682" r="0.9" opacity="0.81"/><circle cx="539" cy="256" r="2.3" opacity="0.27"/></g>
<g fill="none" stroke="hsl(142 75% 68%)" stroke-width="2" opacity=".45"><ellipse cx="400" cy="520" rx="144" ry="54" transform="rotate(7 400 520)"/><ellipse cx="400" cy="520" rx="224" ry="69" transform="rotate(18 400 520)"/></g>
<g fill="url(#shape)" opacity=".82" filter="url(#glow)"><circle cx="400" cy="520" r="110"/><circle class="cut" cx="450" cy="450" r="115"/></g>
<path d="M0 920 Q200 840 400 950 T800 890V1200H0Z" fill="#07070a" opacity=".9"/>
<g fill="none" stroke="hsl(82 68% 65%)" opacity=".3"><path d="M0 980H800"/><path d="M0 1000H800"/><path d="M0 1025H800"/></g>
<rect width="800" height="1200" filter="url(#grain)" opacity=".065"/>
</svg>