<svg xmlns="http://www.w3.org/2000/svg" viewBox="0 0 800 1200" role="img" aria-label="Portada abstracta de El fin de la muerte (Death's End)">
<defs>
  <radialGradient id="bg" cx="50%" cy="38%" r="78%"><stop stop-color="hsl(82 42% 20%)"/><stop offset="1" stop-color="#050507"/></radialGradient>
  <linearGradient id="shape" x1="0" y1="0" x2="1" y2="1"><stop stop-color="hsl(82 72% 64%)"/><stop offset="1" stop-color="hsl(166 76% 52%)"/></linearGradient>
  <filter id="glow"><feGaussianBlur stdDeviation="13" result="b"/><feMerge><feMergeNode in="b"/><feMergeNode in="SourceGraphic"/></feMerge></filter>
  <filter id="grain"><feTurbulence baseFrequency=".82" numOctaves="3"/><feColorMatrix type="saturate" values="0"/></filter>
  <style>.cut{fill:#050507}</style>
</defs>
<rect width="800" height="1200" fill="url(#bg)"/>
<g fill="hsl(166 70% 84%)"><circle cx="728" cy="246" r="1.2" opacity="0.28"/><circle cx="620" cy="50" r="1.0" opacity="0.86"/><circle cx="778" cy="621" r="0.8" opacity="0.34"/><circle cx="247" cy="243" r="0.6" opacity="0.20"/><circle cx="486" cy="677" r="0.8" opacity="0.76"/><circle cx="361" cy="334" r="1.8" opacity="0.27"/><circle cx="602" cy="572" r="1.9" opacity="0.29"/><circle cx="797" cy="263" r="0.7" opacity="0.25"/><circle cx="433" cy="207" r="1.0" opacity="0.60"/><circle cx="176" cy="613" r="1.2" opacity="0.51"/><circle cx="237" cy="604" r="1.8" opacity="0.32"/><circle cx="83" cy="423" r="1.0" opacity="0.23"/><circle cx="715" cy="4" r="1.4" opacity="0.44"/><circle cx="706" cy="578" r="2.0" opacity="0.77"/><circle cx="356" cy="629" r="1.2" opacity="0.30"/><circle cx="181" cy="768" r="1.9" opacity="0.81"/><circle cx="275" cy="725" r="2.4" opacity="0.38"/><circle cx="718" cy="720" r="1.5" opacity="0.43"/><circle cx="520" cy="372" r="0.4" opacity="0.76"/><circle cx="758" cy="406" r="2.0" opacity="0.71"/><circle cx="245" cy="80" r="1.2" opacity="0.79"/><circle cx="549" cy="192" r="1.7" opacity="0.35"/><circle cx="91" cy="438" r="0.4" opacity="0.52"/><circle cx="26" cy="540" r="1.6" opacity="0.69"/><circle cx="139" cy="255" r="2.1" opacity="0.52"/><circle cx="734" cy="516" r="0.4" opacity="0.25"/><circle cx="781" cy="240" r="0.7" opacity="0.46"/><circle cx="508" cy="603" r="0.9" opacity="0.69"/><circle cx="312" cy="238" r="1.7" opacity="0.78"/><circle cx="476" cy="304" r="1.1" opacity="0.65"/><circle cx="405" cy="348" r="1.3" opacity="0.70"/><circle cx="330" cy="329" r="1.4" opacity="0.36"/><circle cx="211" cy="64" r="1.1" opacity="0.24"/><circle cx="53" cy="324" r="1.4" opacity="0.49"/><circle cx="771" cy="189" r="0.8" opacity="0.86"/><circle cx="241" cy="220" r="1.5" opacity="0.36"/><circle cx="698" cy="728" r="1.7" opacity="0.31"/><circle cx="790" cy="534" r="0.5" opacity="0.21"/><circle cx="361" cy="663" r="0.6" opacity="0.53"/><circle cx="569" cy="247" r="2.4" opacity="0.37"/><circle cx="326" cy="482" r="2.0" opacity="0.35"/><circle cx="315" cy="314" r="0.6" opacity="0.30"/><circle cx="120" cy="225" r="0.9" opacity="0.63"/><circle cx="461" cy="365" r="2.2" opacity="0.55"/><circle cx="54" cy="501" r="0.5" opacity="0.69"/><circle cx="338" cy="420" r="2.2" opacity="0.63"/><circle cx="774" cy="744" r="0.4" opacity="0.71"/><circle cx="468" cy="496" r="1.2" opacity="0.80"/><circle cx="220" cy="374" r="1.0" opacity="0.31"/><circle cx="711" cy="157" r="1.6" opacity="0.65"/><circle cx="162" cy="527" r="1.3" opacity="0.40"/><circle cx="312" cy="113" r="1.7" opacity="0.38"/><circle cx="31" cy="201" r="1.5" opacity="0.65"/><circle cx="79" cy="502" r="1.5" opacity="0.78"/><circle cx="551" cy="703" r="0.7" opacity="0.86"/><circle cx="654" cy="38" r="1.1" opacity="0.29"/><circle cx="211" cy="111" r="2.3" opacity="0.65"/><circle cx="251" cy="742" r="2.2" opacity="0.43"/><circle cx="633" cy="397" r="1.2" opacity="0.45"/><circle cx="340" cy="283" r="1.1" opacity="0.81"/><circle cx="791" cy="480" r="1.2" opacity="0.60"/><circle cx="605" cy="593" r="1.1" opacity="0.81"/><circle cx="162" cy="642" r="1.2" opacity="0.23"/><circle cx="425" cy="468" r="0.8" opacity="0.30"/><circle cx="580" cy="338" r="1.5" opacity="0.53"/><circle cx="310" cy="571" r="1.7" opacity="0.45"/><circle cx="631" cy="108" r="0.6" opacity="0.45"/><circle cx="667" cy="574" r="0.9" opacity="0.28"/><circle cx="554" cy="447" r="0.6" opacity="0.61"/><circle cx="794" cy="236" r="2.3" opacity="0.49"/><circle cx="342" cy="343" r="1.8" opacity="0.25"/><circle cx="137" cy="753" r="1.8" opacity="0.80"/><circle cx="548" cy="575" r="1.7" opacity="0.66"/><circle cx="237" cy="490" r="0.8" opacity="0.28"/><circle cx="335" cy="173" r="0.7" opacity="0.31"/></g>
<g fill="none" stroke="hsl(166 75% 68%)" stroke-width="2" opacity=".45"><ellipse cx="400" cy="520" rx="141" ry="43" transform="rotate(9 400 520)"/><ellipse cx="400" cy="520" rx="239" ry="67" transform="rotate(29 400 520)"/><ellipse cx="400" cy="520" rx="274" ry="99" transform="rotate(-24 400 520)"/><ellipse cx="400" cy="520" rx="376" ry="120" transform="rotate(-12 400 520)"/></g>
<g fill="url(#shape)" opacity=".82" filter="url(#glow)"><polygon points="400,180 690,510 530,850 270,850 110,510"/><polygon class="cut" points="400,350 540,530 470,700 330,700 260,530"/></g>
<path d="M0 894 Q200 834 400 924 T800 884V1200H0Z" fill="#07070a" opacity=".9"/>
<g fill="none" stroke="hsl(82 68% 65%)" opacity=".3"><path d="M0 980H800"/><path d="M0 1000H800"/><path d="M0 1025H800"/></g>
<rect width="800" height="1200" filter="url(#grain)" opacity=".065"/>
</svg>