<svg xmlns="http://www.w3.org/2000/svg" viewBox="0 0 800 1200" role="img" aria-label="Portada abstracta de El aprendiz de guerrero (The Warrior's Apprentice)">
<defs>
  <radialGradient id="bg" cx="50%" cy="38%" r="78%"><stop stop-color="hsl(260 42% 20%)"/><stop offset="1" stop-color="#050507"/></radialGradient>
  <linearGradient id="shape" x1="0" y1="0" x2="1" y2="1"><stop stop-color="hsl(260 72% 64%)"/><stop offset="1" stop-color="hsl(346 76% 52%)"/></linearGradient>
  <filter id="glow"><feGaussianBlur stdDeviation="13" result="b"/><feMerge><feMergeNode in="b"/><feMergeNode in="SourceGraphic"/></feMerge></filter>
  <filter id="grain"><feTurbulence baseFrequency=".82" numOctaves="3"/><feColorMatrix type="saturate" values="0"/></filter>
  <style>.cut{fill:#050507}</style>
</defs>
<rect width="800" height="1200" fill="url(#bg)"/>
<g fill="hsl(346 70% 84%)"><circle cx="376" cy="267" r="1.2" opacity="0.54"/><circle cx="59" cy="42" r="1.2" opacity="0.45"/><circle cx="647" cy="297" r="1.6" opacity="0.62"/><circle cx="305" cy="185" r="1.4" opacity="0.19"/><circle cx="447" cy="702" r="0.6" opacity="0.24"/><circle cx="713" cy="637" r="1.2" opacity="0.52"/><circle cx="264" cy="336" r="1.4" opacity="0.25"/><circle cx="664" cy="222" r="1.6" opacity="0.73"/><circle cx="419" cy="223" r="2.4" opacity="0.32"/><circle cx="299" cy="524" r="1.5" opacity="0.42"/><circle cx="42" cy="523" r="1.9" opacity="0.44"/><circle cx="316" cy="361" r="1.0" opacity="0.84"/><circle cx="410" cy="1" r="2.0" opacity="0.22"/><circle cx="656" cy="98" r="2.2" opacity="0.46"/><circle cx="497" cy="38" r="1.4" opacity="0.50"/><circle cx="78" cy="249" r="0.8" opacity="0.18"/><circle cx="584" cy="496" r="1.7" opacity="0.21"/><circle cx="71" cy="681" r="1.6" opacity="0.22"/><circle cx="40" cy="765" r="1.1" opacity="0.51"/><circle cx="323" cy="261" r="0.8" opacity="0.22"/><circle cx="541" cy="5" r="2.2" opacity="0.77"/><circle cx="663" cy="250" r="1.0" opacity="0.29"/><circle cx="7" cy="466" r="1.3" opacity="0.52"/><circle cx="396" cy="683" r="1.5" opacity="0.37"/><circle cx="401" cy="553" r="1.5" opacity="0.69"/><circle cx="644" cy="721" r="1.6" opacity="0.30"/><circle cx="445" cy="355" r="1.8" opacity="0.85"/><circle cx="118" cy="521" r="1.6" opacity="0.48"/><circle cx="707" cy="726" r="0.8" opacity="0.58"/><circle cx="583" cy="130" r="2.1" opacity="0.67"/><circle cx="357" cy="402" r="0.6" opacity="0.62"/><circle cx="66" cy="560" r="1.0" opacity="0.55"/><circle cx="638" cy="580" r="1.4" opacity="0.83"/><circle cx="330" cy="128" r="2.3" opacity="0.50"/><circle cx="284" cy="378" r="1.7" opacity="0.37"/><circle cx="358" cy="166" r="2.0" opacity="0.42"/><circle cx="223" cy="10" r="1.3" opacity="0.64"/><circle cx="282" cy="735" r="2.1" opacity="0.55"/><circle cx="297" cy="343" r="0.9" opacity="0.23"/><circle cx="425" cy="482" r="0.5" opacity="0.47"/><circle cx="39" cy="171" r="0.5" opacity="0.28"/><circle cx="234" cy="291" r="1.9" opacity="0.59"/><circle cx="42" cy="434" r="1.2" opacity="0.56"/><circle cx="774" cy="778" r="0.5" opacity="0.23"/><circle cx="399" cy="706" r="2.3" opacity="0.72"/><circle cx="100" cy="647" r="0.6" opacity="0.77"/><circle cx="447" cy="768" r="0.7" opacity="0.74"/><circle cx="392" cy="296" r="2.2" opacity="0.72"/><circle cx="187" cy="774" r="1.2" opacity="0.65"/><circle cx="78" cy="509" r="1.8" opacity="0.25"/><circle cx="503" cy="29" r="1.3" opacity="0.78"/><circle cx="294" cy="624" r="1.1" opacity="0.83"/><circle cx="564" cy="256" r="1.5" opacity="0.34"/><circle cx="755" cy="42" r="2.0" opacity="0.43"/><circle cx="518" cy="578" r="0.8" opacity="0.62"/><circle cx="280" cy="656" r="2.1" opacity="0.59"/><circle cx="660" cy="203" r="2.2" opacity="0.85"/><circle cx="764" cy="559" r="1.0" opacity="0.51"/><circle cx="592" cy="430" r="1.3" opacity="0.54"/><circle cx="276" cy="167" r="1.8" opacity="0.69"/><circle cx="429" cy="537" r="2.1" opacity="0.32"/><circle cx="47" cy="230" r="1.1" opacity="0.55"/><circle cx="171" cy="93" r="0.8" opacity="0.69"/><circle cx="383" cy="720" r="1.7" opacity="0.53"/><circle cx="739" cy="263" r="1.9" opacity="0.35"/><circle cx="737" cy="167" r="2.1" opacity="0.42"/><circle cx="251" cy="114" r="0.8" opacity="0.21"/><circle cx="323" cy="730" r="2.2" opacity="0.34"/><circle cx="80" cy="551" r="0.9" opacity="0.40"/><circle cx="674" cy="94" r="0.9" opacity="0.58"/><circle cx="118" cy="316" r="0.7" opacity="0.26"/><circle cx="735" cy="551" r="1.2" opacity="0.42"/><circle cx="643" cy="189" r="1.3" opacity="0.28"/><circle cx="558" cy="522" r="2.1" opacity="0.65"/><circle cx="197" cy="768" r="1.2" opacity="0.43"/></g>
<g fill="none" stroke="hsl(346 75% 68%)" stroke-width="2" opacity=".45"><ellipse cx="400" cy="520" rx="148" ry="55" transform="rotate(0 400 520)"/><ellipse cx="400" cy="520" rx="235" ry="71" transform="rotate(18 400 520)"/><ellipse cx="400" cy="520" rx="307" ry="100" transform="rotate(16 400 520)"/><ellipse cx="400" cy="520" rx="356" ry="113" transform="rotate(17 400 520)"/></g>
<g fill="url(#shape)" opacity=".82" filter="url(#glow)"><polygon points="400,180 690,510 530,850 270,850 110,510"/><polygon class="cut" points="400,350 540,530 470,700 330,700 260,530"/></g>
<path d="M0 894 Q200 894 400 914 T800 944V1200H0Z" fill="#07070a" opacity=".9"/>
<g fill="none" stroke="hsl(260 68% 65%)" opacity=".3"><path d="M0 980H800"/><path d="M0 1000H800"/><path d="M0 1025H800"/></g>
<rect width="800" height="1200" filter="url(#grain)" opacity=".065"/>
</svg>