<svg xmlns="http://www.w3.org/2000/svg" viewBox="0 0 800 1200" role="img" aria-label="Portada abstracta de La máquina del tiempo">
<defs>
  <radialGradient id="bg" cx="50%" cy="38%" r="78%"><stop stop-color="hsl(210 42% 20%)"/><stop offset="1" stop-color="#050507"/></radialGradient>
  <linearGradient id="shape" x1="0" y1="0" x2="1" y2="1"><stop stop-color="hsl(210 72% 64%)"/><stop offset="1" stop-color="hsl(268 76% 52%)"/></linearGradient>
  <filter id="glow"><feGaussianBlur stdDeviation="13" result="b"/><feMerge><feMergeNode in="b"/><feMergeNode in="SourceGraphic"/></feMerge></filter>
  <filter id="grain"><feTurbulence baseFrequency=".82" numOctaves="3"/><feColorMatrix type="saturate" values="0"/></filter>
  <style>.cut{fill:#050507}</style>
</defs>
<rect width="800" height="1200" fill="url(#bg)"/>
<g fill="hsl(268 70% 84%)"><circle cx="648" cy="12" r="1.7" opacity="0.55"/><circle cx="69" cy="75" r="1.0" opacity="0.63"/><circle cx="700" cy="129" r="2.4" opacity="0.84"/><circle cx="9" cy="525" r="1.9" opacity="0.22"/><circle cx="50" cy="300" r="1.8" opacity="0.52"/><circle cx="193" cy="354" r="2.3" opacity="0.80"/><circle cx="716" cy="419" r="1.9" opacity="0.84"/><circle cx="285" cy="758" r="1.1" opacity="0.54"/><circle cx="293" cy="9" r="1.4" opacity="0.50"/><circle cx="661" cy="359" r="2.0" opacity="0.51"/><circle cx="518" cy="56" r="2.1" opacity="0.44"/><circle cx="598" cy="557" r="2.2" opacity="0.54"/><circle cx="34" cy="116" r="1.7" opacity="0.49"/><circle cx="631" cy="135" r="2.1" opacity="0.68"/><circle cx="52" cy="507" r="1.8" opacity="0.69"/><circle cx="439" cy="434" r="1.0" opacity="0.60"/><circle cx="375" cy="490" r="1.4" opacity="0.42"/><circle cx="35" cy="459" r="2.0" opacity="0.71"/><circle cx="492" cy="338" r="1.1" opacity="0.64"/><circle cx="95" cy="772" r="0.6" opacity="0.24"/><circle cx="146" cy="345" r="0.8" opacity="0.59"/><circle cx="536" cy="507" r="1.4" opacity="0.35"/><circle cx="308" cy="77" r="0.7" opacity="0.85"/><circle cx="490" cy="584" r="1.8" opacity="0.83"/><circle cx="697" cy="439" r="0.8" opacity="0.26"/><circle cx="380" cy="617" r="0.9" opacity="0.56"/><circle cx="453" cy="198" r="2.3" opacity="0.73"/><circle cx="312" cy="664" r="0.6" opacity="0.76"/><circle cx="415" cy="727" r="2.3" opacity="0.73"/><circle cx="563" cy="112" r="1.1" opacity="0.27"/><circle cx="436" cy="639" r="1.5" opacity="0.34"/><circle cx="131" cy="429" r="1.3" opacity="0.43"/><circle cx="176" cy="568" r="0.5" opacity="0.68"/><circle cx="570" cy="446" r="0.5" opacity="0.40"/><circle cx="147" cy="31" r="1.5" opacity="0.22"/><circle cx="516" cy="193" r="1.0" opacity="0.43"/><circle cx="240" cy="499" r="0.8" opacity="0.31"/><circle cx="15" cy="61" r="2.3" opacity="0.62"/><circle cx="399" cy="10" r="1.5" opacity="0.27"/><circle cx="237" cy="416" r="2.3" opacity="0.48"/><circle cx="649" cy="451" r="2.0" opacity="0.77"/><circle cx="215" cy="393" r="1.5" opacity="0.23"/><circle cx="434" cy="298" r="0.9" opacity="0.81"/><circle cx="255" cy="197" r="1.2" opacity="0.38"/><circle cx="230" cy="200" r="0.8" opacity="0.28"/><circle cx="590" cy="736" r="1.9" opacity="0.62"/><circle cx="208" cy="549" r="0.5" opacity="0.64"/><circle cx="721" cy="526" r="1.6" opacity="0.69"/><circle cx="273" cy="23" r="0.8" opacity="0.52"/><circle cx="453" cy="759" r="0.5" opacity="0.32"/><circle cx="659" cy="187" r="1.3" opacity="0.49"/><circle cx="774" cy="140" r="0.7" opacity="0.20"/><circle cx="250" cy="414" r="2.3" opacity="0.51"/><circle cx="174" cy="43" r="1.2" opacity="0.31"/><circle cx="99" cy="633" r="0.5" opacity="0.38"/><circle cx="604" cy="168" r="2.4" opacity="0.38"/><circle cx="20" cy="653" r="0.5" opacity="0.75"/><circle cx="457" cy="383" r="2.4" opacity="0.21"/><circle cx="217" cy="474" r="1.7" opacity="0.22"/><circle cx="155" cy="252" r="2.4" opacity="0.54"/><circle cx="198" cy="179" r="2.4" opacity="0.46"/><circle cx="263" cy="274" r="1.0" opacity="0.73"/><circle cx="316" cy="608" r="0.5" opacity="0.74"/><circle cx="550" cy="154" r="1.7" opacity="0.75"/><circle cx="68" cy="183" r="1.8" opacity="0.78"/><circle cx="257" cy="485" r="0.4" opacity="0.57"/><circle cx="234" cy="405" r="1.0" opacity="0.78"/><circle cx="222" cy="14" r="1.8" opacity="0.67"/><circle cx="595" cy="327" r="1.2" opacity="0.41"/><circle cx="705" cy="221" r="1.0" opacity="0.65"/><circle cx="276" cy="567" r="0.9" opacity="0.65"/><circle cx="796" cy="248" r="1.9" opacity="0.20"/><circle cx="696" cy="96" r="1.2" opacity="0.76"/><circle cx="133" cy="482" r="2.4" opacity="0.31"/><circle cx="140" cy="752" r="1.7" opacity="0.69"/></g>
<g fill="none" stroke="hsl(268 75% 68%)" stroke-width="2" opacity=".45"><ellipse cx="400" cy="520" rx="161" ry="41" transform="rotate(-20 400 520)"/><ellipse cx="400" cy="520" rx="226" ry="72" transform="rotate(-6 400 520)"/></g>
<g fill="url(#shape)" opacity=".82" filter="url(#glow)"><path d="M70 690 Q400 208 730 690 Q400 892 70 690Z"/><circle class="cut" cx="400" cy="570" r="90"/></g>
<path d="M0 928 Q200 848 400 908 T800 898V1200H0Z" fill="#07070a" opacity=".9"/>
<g fill="none" stroke="hsl(210 68% 65%)" opacity=".3"><path d="M0 980H800"/><path d="M0 1000H800"/><path d="M0 1025H800"/></g>
<rect width="800" height="1200" filter="url(#grain)" opacity=".065"/>
</svg>