<svg xmlns="http://www.w3.org/2000/svg" viewBox="0 0 800 1200" role="img" aria-label="Portada abstracta de El año del diluvio (The Year of the Flood)">
<defs>
  <radialGradient id="bg" cx="50%" cy="38%" r="78%"><stop stop-color="hsl(12 42% 20%)"/><stop offset="1" stop-color="#050507"/></radialGradient>
  <linearGradient id="shape" x1="0" y1="0" x2="1" y2="1"><stop stop-color="hsl(12 72% 64%)"/><stop offset="1" stop-color="hsl(74 76% 52%)"/></linearGradient>
  <filter id="glow"><feGaussianBlur stdDeviation="13" result="b"/><feMerge><feMergeNode in="b"/><feMergeNode in="SourceGraphic"/></feMerge></filter>
  <filter id="grain"><feTurbulence baseFrequency=".82" numOctaves="3"/><feColorMatrix type="saturate" values="0"/></filter>
  <style>.cut{fill:#050507}</style>
</defs>
<rect width="800" height="1200" fill="url(#bg)"/>
<g fill="hsl(74 70% 84%)"><circle cx="434" cy="479" r="0.5" opacity="0.18"/><circle cx="446" cy="137" r="1.6" opacity="0.68"/><circle cx="202" cy="265" r="1.4" opacity="0.84"/><circle cx="353" cy="3" r="1.2" opacity="0.20"/><circle cx="654" cy="82" r="1.5" opacity="0.38"/><circle cx="133" cy="245" r="0.5" opacity="0.71"/><circle cx="60" cy="76" r="1.3" opacity="0.81"/><circle cx="255" cy="693" r="1.8" opacity="0.34"/><circle cx="267" cy="7" r="0.9" opacity="0.37"/><circle cx="661" cy="125" r="0.8" opacity="0.28"/><circle cx="359" cy="358" r="0.7" opacity="0.29"/><circle cx="728" cy="287" r="1.8" opacity="0.75"/><circle cx="798" cy="168" r="1.5" opacity="0.35"/><circle cx="278" cy="737" r="0.9" opacity="0.79"/><circle cx="703" cy="762" r="1.2" opacity="0.28"/><circle cx="4" cy="296" r="1.7" opacity="0.54"/><circle cx="81" cy="544" r="0.5" opacity="0.24"/><circle cx="625" cy="502" r="2.1" opacity="0.64"/><circle cx="510" cy="117" r="1.9" opacity="0.35"/><circle cx="65" cy="89" r="1.0" opacity="0.37"/><circle cx="186" cy="37" r="1.0" opacity="0.33"/><circle cx="107" cy="259" r="1.1" opacity="0.61"/><circle cx="650" cy="1" r="1.7" opacity="0.31"/><circle cx="505" cy="200" r="0.8" opacity="0.47"/><circle cx="598" cy="335" r="0.7" opacity="0.46"/><circle cx="328" cy="704" r="1.1" opacity="0.40"/><circle cx="217" cy="575" r="1.7" opacity="0.50"/><circle cx="115" cy="597" r="0.8" opacity="0.83"/><circle cx="169" cy="288" r="0.4" opacity="0.64"/><circle cx="169" cy="680" r="0.4" opacity="0.34"/><circle cx="330" cy="670" r="2.0" opacity="0.81"/><circle cx="285" cy="441" r="1.0" opacity="0.82"/><circle cx="511" cy="290" r="1.9" opacity="0.81"/><circle cx="474" cy="762" r="2.2" opacity="0.56"/><circle cx="388" cy="724" r="2.3" opacity="0.62"/><circle cx="166" cy="13" r="1.0" opacity="0.37"/><circle cx="554" cy="183" r="1.9" opacity="0.54"/><circle cx="775" cy="544" r="2.0" opacity="0.59"/><circle cx="127" cy="494" r="0.5" opacity="0.64"/><circle cx="572" cy="220" r="1.0" opacity="0.27"/><circle cx="7" cy="399" r="1.7" opacity="0.22"/><circle cx="423" cy="648" r="0.7" opacity="0.81"/><circle cx="34" cy="95" r="1.9" opacity="0.67"/><circle cx="647" cy="322" r="1.3" opacity="0.72"/><circle cx="370" cy="214" r="0.5" opacity="0.62"/><circle cx="479" cy="14" r="0.4" opacity="0.60"/><circle cx="623" cy="391" r="0.9" opacity="0.70"/><circle cx="564" cy="203" r="1.0" opacity="0.65"/><circle cx="283" cy="10" r="0.9" opacity="0.49"/><circle cx="386" cy="227" r="2.1" opacity="0.23"/><circle cx="561" cy="109" r="1.1" opacity="0.30"/><circle cx="154" cy="333" r="1.7" opacity="0.81"/><circle cx="682" cy="12" r="2.3" opacity="0.39"/><circle cx="530" cy="188" r="1.9" opacity="0.58"/><circle cx="722" cy="724" r="1.0" opacity="0.37"/><circle cx="389" cy="349" r="2.3" opacity="0.22"/><circle cx="628" cy="576" r="2.3" opacity="0.35"/><circle cx="679" cy="546" r="2.0" opacity="0.31"/><circle cx="232" cy="435" r="0.8" opacity="0.64"/><circle cx="6" cy="380" r="2.1" opacity="0.29"/><circle cx="601" cy="338" r="1.9" opacity="0.57"/><circle cx="496" cy="387" r="1.1" opacity="0.33"/><circle cx="548" cy="595" r="1.2" opacity="0.39"/><circle cx="452" cy="743" r="1.9" opacity="0.34"/><circle cx="73" cy="531" r="1.6" opacity="0.40"/><circle cx="352" cy="579" r="0.9" opacity="0.21"/><circle cx="44" cy="584" r="1.9" opacity="0.82"/><circle cx="567" cy="84" r="0.8" opacity="0.34"/><circle cx="752" cy="165" r="2.0" opacity="0.30"/><circle cx="774" cy="417" r="1.1" opacity="0.69"/><circle cx="368" cy="455" r="0.4" opacity="0.82"/><circle cx="587" cy="698" r="1.7" opacity="0.61"/><circle cx="282" cy="58" r="0.5" opacity="0.30"/><circle cx="533" cy="469" r="0.5" opacity="0.22"/><circle cx="512" cy="242" r="1.5" opacity="0.48"/></g>
<g fill="none" stroke="hsl(74 75% 68%)" stroke-width="2" opacity=".45"><ellipse cx="400" cy="520" rx="164" ry="49" transform="rotate(-9 400 520)"/><ellipse cx="400" cy="520" rx="229" ry="67" transform="rotate(16 400 520)"/></g>
<g fill="url(#shape)" opacity=".82" filter="url(#glow)"><path d="M70 690 Q400 228 730 690 Q400 872 70 690Z"/><circle class="cut" cx="400" cy="570" r="90"/></g>
<path d="M0 968 Q200 868 400 928 T800 918V1200H0Z" fill="#07070a" opacity=".9"/>
<g fill="none" stroke="hsl(12 68% 65%)" opacity=".3"><path d="M0 980H800"/><path d="M0 1000H800"/><path d="M0 1025H800"/></g>
<rect width="800" height="1200" filter="url(#grain)" opacity=".065"/>
</svg>