<svg xmlns="http://www.w3.org/2000/svg" viewBox="0 0 800 1200" role="img" aria-label="Portada abstracta de La carretera (The Road)">
<defs>
  <radialGradient id="bg" cx="50%" cy="38%" r="78%"><stop stop-color="hsl(8 42% 20%)"/><stop offset="1" stop-color="#050507"/></radialGradient>
  <linearGradient id="shape" x1="0" y1="0" x2="1" y2="1"><stop stop-color="hsl(8 72% 64%)"/><stop offset="1" stop-color="hsl(67 76% 52%)"/></linearGradient>
  <filter id="glow"><feGaussianBlur stdDeviation="13" result="b"/><feMerge><feMergeNode in="b"/><feMergeNode in="SourceGraphic"/></feMerge></filter>
  <filter id="grain"><feTurbulence baseFrequency=".82" numOctaves="3"/><feColorMatrix type="saturate" values="0"/></filter>
  <style>.cut{fill:#050507}</style>
</defs>
<rect width="800" height="1200" fill="url(#bg)"/>
<g fill="hsl(67 70% 84%)"><circle cx="686" cy="731" r="1.8" opacity="0.65"/><circle cx="136" cy="499" r="0.8" opacity="0.44"/><circle cx="627" cy="706" r="1.6" opacity="0.73"/><circle cx="167" cy="557" r="1.8" opacity="0.70"/><circle cx="223" cy="531" r="1.5" opacity="0.66"/><circle cx="146" cy="86" r="1.3" opacity="0.66"/><circle cx="579" cy="178" r="0.6" opacity="0.50"/><circle cx="623" cy="743" r="1.1" opacity="0.65"/><circle cx="175" cy="503" r="2.2" opacity="0.39"/><circle cx="310" cy="109" r="1.5" opacity="0.61"/><circle cx="34" cy="629" r="1.1" opacity="0.48"/><circle cx="409" cy="223" r="0.8" opacity="0.54"/><circle cx="30" cy="655" r="0.8" opacity="0.83"/><circle cx="700" cy="175" r="0.8" opacity="0.86"/><circle cx="546" cy="105" r="1.9" opacity="0.72"/><circle cx="785" cy="387" r="1.1" opacity="0.27"/><circle cx="409" cy="195" r="0.8" opacity="0.39"/><circle cx="12" cy="664" r="1.5" opacity="0.40"/><circle cx="300" cy="532" r="2.3" opacity="0.84"/><circle cx="569" cy="581" r="1.3" opacity="0.45"/><circle cx="341" cy="752" r="1.4" opacity="0.64"/><circle cx="93" cy="541" r="1.9" opacity="0.50"/><circle cx="656" cy="319" r="2.2" opacity="0.50"/><circle cx="370" cy="681" r="1.3" opacity="0.53"/><circle cx="243" cy="157" r="0.7" opacity="0.23"/><circle cx="37" cy="735" r="1.9" opacity="0.58"/><circle cx="418" cy="648" r="1.4" opacity="0.64"/><circle cx="792" cy="779" r="0.7" opacity="0.39"/><circle cx="791" cy="477" r="1.0" opacity="0.22"/><circle cx="610" cy="264" r="2.0" opacity="0.63"/><circle cx="373" cy="486" r="0.9" opacity="0.71"/><circle cx="364" cy="111" r="0.4" opacity="0.77"/><circle cx="501" cy="191" r="1.1" opacity="0.63"/><circle cx="675" cy="278" r="1.3" opacity="0.27"/><circle cx="315" cy="127" r="1.7" opacity="0.32"/><circle cx="481" cy="563" r="1.6" opacity="0.38"/><circle cx="507" cy="589" r="1.8" opacity="0.27"/><circle cx="49" cy="20" r="0.7" opacity="0.81"/><circle cx="774" cy="555" r="1.5" opacity="0.39"/><circle cx="148" cy="651" r="0.5" opacity="0.82"/><circle cx="39" cy="526" r="2.1" opacity="0.83"/><circle cx="543" cy="696" r="0.7" opacity="0.54"/><circle cx="281" cy="335" r="0.6" opacity="0.48"/><circle cx="245" cy="50" r="1.8" opacity="0.20"/><circle cx="199" cy="152" r="1.3" opacity="0.42"/><circle cx="609" cy="373" r="1.8" opacity="0.69"/><circle cx="120" cy="615" r="1.2" opacity="0.76"/><circle cx="579" cy="579" r="2.2" opacity="0.50"/><circle cx="613" cy="152" r="2.4" opacity="0.70"/><circle cx="312" cy="340" r="1.4" opacity="0.44"/><circle cx="398" cy="249" r="1.1" opacity="0.83"/><circle cx="617" cy="362" r="0.6" opacity="0.71"/><circle cx="621" cy="100" r="2.0" opacity="0.27"/><circle cx="767" cy="709" r="1.0" opacity="0.51"/><circle cx="417" cy="762" r="2.3" opacity="0.70"/><circle cx="477" cy="399" r="2.1" opacity="0.63"/><circle cx="201" cy="120" r="2.2" opacity="0.22"/><circle cx="707" cy="372" r="1.5" opacity="0.50"/><circle cx="492" cy="19" r="2.4" opacity="0.21"/><circle cx="541" cy="254" r="0.7" opacity="0.18"/><circle cx="691" cy="326" r="2.0" opacity="0.50"/><circle cx="29" cy="393" r="2.3" opacity="0.59"/><circle cx="2" cy="777" r="2.0" opacity="0.66"/><circle cx="780" cy="116" r="0.7" opacity="0.35"/><circle cx="400" cy="442" r="1.0" opacity="0.52"/><circle cx="218" cy="49" r="1.4" opacity="0.75"/><circle cx="285" cy="356" r="2.2" opacity="0.41"/><circle cx="387" cy="141" r="2.2" opacity="0.33"/><circle cx="593" cy="599" r="0.8" opacity="0.57"/><circle cx="626" cy="102" r="2.1" opacity="0.63"/><circle cx="542" cy="447" r="1.8" opacity="0.40"/><circle cx="772" cy="467" r="0.5" opacity="0.53"/><circle cx="317" cy="43" r="2.1" opacity="0.24"/><circle cx="469" cy="29" r="0.7" opacity="0.40"/><circle cx="447" cy="41" r="0.6" opacity="0.72"/></g>
<g fill="none" stroke="hsl(67 75% 68%)" stroke-width="2" opacity=".45"><ellipse cx="400" cy="520" rx="142" ry="45" transform="rotate(-13 400 520)"/><ellipse cx="400" cy="520" rx="211" ry="70" transform="rotate(23 400 520)"/><ellipse cx="400" cy="520" rx="300" ry="91" transform="rotate(10 400 520)"/><ellipse cx="400" cy="520" rx="376" ry="129" transform="rotate(-24 400 520)"/><ellipse cx="400" cy="520" rx="446" ry="148" transform="rotate(8 400 520)"/></g>
<g fill="url(#shape)" opacity=".82" filter="url(#glow)"><rect x="302" y="250" width="337" height="560" rx="7" transform="rotate(7 400 530)"/></g>
<path d="M0 997 Q200 887 400 927 T800 937V1200H0Z" fill="#07070a" opacity=".9"/>
<g fill="none" stroke="hsl(8 68% 65%)" opacity=".3"><path d="M0 980H800"/><path d="M0 1000H800"/><path d="M0 1025H800"/></g>
<rect width="800" height="1200" filter="url(#grain)" opacity=".065"/>
</svg>