<svg xmlns="http://www.w3.org/2000/svg" viewBox="0 0 800 1200" role="img" aria-label="Portada abstracta de La guerra de los mundos">
<defs>
  <radialGradient id="bg" cx="50%" cy="38%" r="78%"><stop stop-color="hsl(82 42% 20%)"/><stop offset="1" stop-color="#050507"/></radialGradient>
  <linearGradient id="shape" x1="0" y1="0" x2="1" y2="1"><stop stop-color="hsl(82 72% 64%)"/><stop offset="1" stop-color="hsl(195 76% 52%)"/></linearGradient>
  <filter id="glow"><feGaussianBlur stdDeviation="13" result="b"/><feMerge><feMergeNode in="b"/><feMergeNode in="SourceGraphic"/></feMerge></filter>
  <filter id="grain"><feTurbulence baseFrequency=".82" numOctaves="3"/><feColorMatrix type="saturate" values="0"/></filter>
  <style>.cut{fill:#050507}</style>
</defs>
<rect width="800" height="1200" fill="url(#bg)"/>
<g fill="hsl(195 70% 84%)"><circle cx="107" cy="204" r="1.4" opacity="0.55"/><circle cx="45" cy="41" r="0.5" opacity="0.84"/><circle cx="760" cy="677" r="1.9" opacity="0.35"/><circle cx="46" cy="756" r="1.0" opacity="0.44"/><circle cx="711" cy="569" r="2.4" opacity="0.78"/><circle cx="635" cy="553" r="1.3" opacity="0.35"/><circle cx="175" cy="399" r="1.5" opacity="0.80"/><circle cx="129" cy="380" r="0.9" opacity="0.72"/><circle cx="259" cy="378" r="1.6" opacity="0.79"/><circle cx="722" cy="145" r="1.9" opacity="0.65"/><circle cx="652" cy="121" r="1.4" opacity="0.24"/><circle cx="331" cy="422" r="0.8" opacity="0.71"/><circle cx="274" cy="76" r="1.1" opacity="0.27"/><circle cx="64" cy="730" r="0.7" opacity="0.31"/><circle cx="200" cy="649" r="1.5" opacity="0.39"/><circle cx="187" cy="310" r="1.0" opacity="0.30"/><circle cx="560" cy="733" r="2.3" opacity="0.76"/><circle cx="771" cy="702" r="2.0" opacity="0.68"/><circle cx="106" cy="576" r="2.4" opacity="0.20"/><circle cx="463" cy="241" r="2.3" opacity="0.68"/><circle cx="615" cy="630" r="1.4" opacity="0.73"/><circle cx="208" cy="99" r="1.1" opacity="0.39"/><circle cx="611" cy="197" r="2.1" opacity="0.76"/><circle cx="77" cy="15" r="2.2" opacity="0.86"/><circle cx="161" cy="588" r="1.0" opacity="0.34"/><circle cx="382" cy="31" r="2.1" opacity="0.34"/><circle cx="632" cy="264" r="1.8" opacity="0.22"/><circle cx="358" cy="623" r="1.4" opacity="0.39"/><circle cx="248" cy="575" r="1.3" opacity="0.68"/><circle cx="337" cy="671" r="1.6" opacity="0.33"/><circle cx="71" cy="204" r="1.5" opacity="0.68"/><circle cx="193" cy="660" r="1.8" opacity="0.38"/><circle cx="563" cy="512" r="2.1" opacity="0.60"/><circle cx="265" cy="102" r="1.6" opacity="0.23"/><circle cx="349" cy="548" r="0.6" opacity="0.65"/><circle cx="33" cy="415" r="1.5" opacity="0.32"/><circle cx="429" cy="176" r="1.6" opacity="0.28"/><circle cx="555" cy="633" r="0.6" opacity="0.46"/><circle cx="343" cy="244" r="0.7" opacity="0.48"/><circle cx="486" cy="752" r="1.9" opacity="0.78"/><circle cx="623" cy="743" r="1.7" opacity="0.20"/><circle cx="665" cy="652" r="1.2" opacity="0.79"/><circle cx="181" cy="718" r="1.2" opacity="0.61"/><circle cx="629" cy="89" r="1.4" opacity="0.50"/><circle cx="539" cy="723" r="0.5" opacity="0.47"/><circle cx="752" cy="383" r="0.5" opacity="0.82"/><circle cx="615" cy="41" r="1.4" opacity="0.42"/><circle cx="580" cy="539" r="1.7" opacity="0.83"/><circle cx="558" cy="749" r="2.2" opacity="0.35"/><circle cx="538" cy="41" r="1.9" opacity="0.22"/><circle cx="248" cy="214" r="0.8" opacity="0.59"/><circle cx="17" cy="669" r="1.4" opacity="0.29"/><circle cx="219" cy="629" r="1.7" opacity="0.43"/><circle cx="298" cy="778" r="2.0" opacity="0.84"/><circle cx="464" cy="362" r="2.3" opacity="0.38"/><circle cx="467" cy="180" r="1.1" opacity="0.55"/><circle cx="172" cy="213" r="1.5" opacity="0.19"/><circle cx="37" cy="298" r="1.5" opacity="0.84"/><circle cx="623" cy="342" r="0.6" opacity="0.72"/><circle cx="372" cy="759" r="1.1" opacity="0.22"/><circle cx="403" cy="482" r="2.0" opacity="0.75"/><circle cx="75" cy="38" r="1.4" opacity="0.75"/><circle cx="542" cy="685" r="2.1" opacity="0.25"/><circle cx="419" cy="254" r="1.2" opacity="0.18"/><circle cx="639" cy="90" r="1.1" opacity="0.51"/><circle cx="359" cy="288" r="2.2" opacity="0.27"/><circle cx="293" cy="19" r="0.8" opacity="0.83"/><circle cx="395" cy="303" r="1.6" opacity="0.39"/><circle cx="295" cy="566" r="1.2" opacity="0.76"/><circle cx="104" cy="764" r="0.8" opacity="0.32"/><circle cx="554" cy="688" r="1.4" opacity="0.18"/><circle cx="653" cy="645" r="1.7" opacity="0.71"/><circle cx="693" cy="83" r="2.0" opacity="0.60"/><circle cx="718" cy="561" r="0.6" opacity="0.75"/><circle cx="430" cy="624" r="0.7" opacity="0.71"/></g>
<g fill="none" stroke="hsl(195 75% 68%)" stroke-width="2" opacity=".45"><ellipse cx="400" cy="520" rx="133" ry="53" transform="rotate(-19 400 520)"/><ellipse cx="400" cy="520" rx="204" ry="70" transform="rotate(-23 400 520)"/><ellipse cx="400" cy="520" rx="279" ry="100" transform="rotate(-3 400 520)"/></g>
<g fill="url(#shape)" opacity=".82" filter="url(#glow)"><circle cx="400" cy="520" r="125"/><circle class="cut" cx="465" cy="445" r="80"/></g>
<path d="M0 985 Q200 805 400 955 T800 855V1200H0Z" fill="#07070a" opacity=".9"/>
<g fill="none" stroke="hsl(82 68% 65%)" opacity=".3"><path d="M0 980H800"/><path d="M0 1000H800"/><path d="M0 1025H800"/></g>
<rect width="800" height="1200" filter="url(#grain)" opacity=".065"/>
</svg>