<svg xmlns="http://www.w3.org/2000/svg" viewBox="0 0 800 1200" role="img" aria-label="Portada abstracta de El fin de la infancia (Childhood's End)">
<defs>
  <radialGradient id="bg" cx="50%" cy="38%" r="78%"><stop stop-color="hsl(82 42% 20%)"/><stop offset="1" stop-color="#050507"/></radialGradient>
  <linearGradient id="shape" x1="0" y1="0" x2="1" y2="1"><stop stop-color="hsl(82 72% 64%)"/><stop offset="1" stop-color="hsl(124 76% 52%)"/></linearGradient>
  <filter id="glow"><feGaussianBlur stdDeviation="13" result="b"/><feMerge><feMergeNode in="b"/><feMergeNode in="SourceGraphic"/></feMerge></filter>
  <filter id="grain"><feTurbulence baseFrequency=".82" numOctaves="3"/><feColorMatrix type="saturate" values="0"/></filter>
  <style>.cut{fill:#050507}</style>
</defs>
<rect width="800" height="1200" fill="url(#bg)"/>
<g fill="hsl(124 70% 84%)"><circle cx="627" cy="205" r="1.2" opacity="0.71"/><circle cx="647" cy="107" r="1.3" opacity="0.25"/><circle cx="623" cy="202" r="1.5" opacity="0.65"/><circle cx="341" cy="614" r="1.4" opacity="0.67"/><circle cx="376" cy="110" r="0.9" opacity="0.72"/><circle cx="323" cy="739" r="2.2" opacity="0.36"/><circle cx="773" cy="510" r="1.3" opacity="0.70"/><circle cx="328" cy="169" r="1.6" opacity="0.20"/><circle cx="717" cy="482" r="1.8" opacity="0.81"/><circle cx="382" cy="445" r="1.7" opacity="0.80"/><circle cx="425" cy="714" r="1.6" opacity="0.72"/><circle cx="646" cy="403" r="2.4" opacity="0.59"/><circle cx="131" cy="469" r="1.6" opacity="0.68"/><circle cx="601" cy="607" r="0.8" opacity="0.39"/><circle cx="286" cy="124" r="0.9" opacity="0.43"/><circle cx="128" cy="88" r="1.9" opacity="0.44"/><circle cx="210" cy="7" r="2.2" opacity="0.49"/><circle cx="5" cy="321" r="1.8" opacity="0.58"/><circle cx="564" cy="734" r="2.4" opacity="0.39"/><circle cx="19" cy="649" r="2.1" opacity="0.65"/><circle cx="347" cy="33" r="1.5" opacity="0.64"/><circle cx="159" cy="637" r="1.3" opacity="0.61"/><circle cx="150" cy="134" r="0.6" opacity="0.22"/><circle cx="412" cy="466" r="0.5" opacity="0.43"/><circle cx="775" cy="376" r="2.3" opacity="0.32"/><circle cx="693" cy="535" r="0.8" opacity="0.83"/><circle cx="567" cy="680" r="0.7" opacity="0.33"/><circle cx="136" cy="559" r="2.0" opacity="0.58"/><circle cx="122" cy="106" r="2.0" opacity="0.23"/><circle cx="556" cy="489" r="1.6" opacity="0.84"/><circle cx="554" cy="337" r="1.9" opacity="0.56"/><circle cx="665" cy="310" r="0.5" opacity="0.74"/><circle cx="398" cy="265" r="1.4" opacity="0.31"/><circle cx="290" cy="371" r="1.5" opacity="0.47"/><circle cx="622" cy="596" r="0.5" opacity="0.47"/><circle cx="660" cy="352" r="0.4" opacity="0.40"/><circle cx="579" cy="585" r="0.8" opacity="0.49"/><circle cx="436" cy="143" r="1.9" opacity="0.49"/><circle cx="572" cy="457" r="0.5" opacity="0.58"/><circle cx="278" cy="535" r="1.7" opacity="0.34"/><circle cx="264" cy="41" r="2.2" opacity="0.69"/><circle cx="410" cy="717" r="1.7" opacity="0.55"/><circle cx="364" cy="277" r="1.1" opacity="0.48"/><circle cx="659" cy="158" r="1.1" opacity="0.55"/><circle cx="377" cy="381" r="2.3" opacity="0.39"/><circle cx="249" cy="444" r="1.2" opacity="0.36"/><circle cx="269" cy="603" r="0.8" opacity="0.56"/><circle cx="76" cy="197" r="1.4" opacity="0.47"/><circle cx="744" cy="30" r="1.5" opacity="0.41"/><circle cx="103" cy="507" r="1.4" opacity="0.37"/><circle cx="668" cy="743" r="1.8" opacity="0.74"/><circle cx="429" cy="12" r="1.9" opacity="0.79"/><circle cx="779" cy="696" r="1.9" opacity="0.45"/><circle cx="167" cy="780" r="1.5" opacity="0.73"/><circle cx="670" cy="288" r="1.9" opacity="0.63"/><circle cx="141" cy="580" r="1.1" opacity="0.22"/><circle cx="369" cy="44" r="1.1" opacity="0.77"/><circle cx="345" cy="149" r="1.5" opacity="0.77"/><circle cx="356" cy="512" r="0.9" opacity="0.56"/><circle cx="393" cy="336" r="0.9" opacity="0.40"/><circle cx="69" cy="190" r="1.4" opacity="0.35"/><circle cx="449" cy="637" r="2.1" opacity="0.70"/><circle cx="720" cy="748" r="1.6" opacity="0.82"/><circle cx="51" cy="253" r="1.7" opacity="0.38"/><circle cx="307" cy="138" r="1.4" opacity="0.53"/><circle cx="646" cy="476" r="0.7" opacity="0.35"/><circle cx="419" cy="722" r="2.0" opacity="0.27"/><circle cx="654" cy="686" r="1.5" opacity="0.71"/><circle cx="6" cy="33" r="1.9" opacity="0.60"/><circle cx="173" cy="93" r="0.7" opacity="0.75"/><circle cx="67" cy="340" r="1.0" opacity="0.52"/><circle cx="588" cy="349" r="0.8" opacity="0.32"/><circle cx="751" cy="533" r="1.1" opacity="0.59"/><circle cx="616" cy="30" r="1.3" opacity="0.43"/><circle cx="609" cy="642" r="1.8" opacity="0.46"/></g>
<g fill="none" stroke="hsl(124 75% 68%)" stroke-width="2" opacity=".45"><ellipse cx="400" cy="520" rx="147" ry="56" transform="rotate(27 400 520)"/><ellipse cx="400" cy="520" rx="220" ry="78" transform="rotate(-8 400 520)"/></g>
<g fill="url(#shape)" opacity=".82" filter="url(#glow)"><path d="M70 690 Q400 138 730 690 Q400 872 70 690Z"/><circle class="cut" cx="400" cy="570" r="90"/></g>
<path d="M0 988 Q200 828 400 958 T800 878V1200H0Z" fill="#07070a" opacity=".9"/>
<g fill="none" stroke="hsl(82 68% 65%)" opacity=".3"><path d="M0 980H800"/><path d="M0 1000H800"/><path d="M0 1025H800"/></g>
<rect width="800" height="1200" filter="url(#grain)" opacity=".065"/>
</svg>