<svg xmlns="http://www.w3.org/2000/svg" viewBox="0 0 800 1200" role="img" aria-label="Portada abstracta de Picnic junto al camino (Stalker)">
<defs>
  <radialGradient id="bg" cx="50%" cy="38%" r="78%"><stop stop-color="hsl(82 42% 20%)"/><stop offset="1" stop-color="#050507"/></radialGradient>
  <linearGradient id="shape" x1="0" y1="0" x2="1" y2="1"><stop stop-color="hsl(82 72% 64%)"/><stop offset="1" stop-color="hsl(197 76% 52%)"/></linearGradient>
  <filter id="glow"><feGaussianBlur stdDeviation="13" result="b"/><feMerge><feMergeNode in="b"/><feMergeNode in="SourceGraphic"/></feMerge></filter>
  <filter id="grain"><feTurbulence baseFrequency=".82" numOctaves="3"/><feColorMatrix type="saturate" values="0"/></filter>
  <style>.cut{fill:#050507}</style>
</defs>
<rect width="800" height="1200" fill="url(#bg)"/>
<g fill="hsl(197 70% 84%)"><circle cx="733" cy="682" r="0.6" opacity="0.26"/><circle cx="383" cy="370" r="0.5" opacity="0.77"/><circle cx="668" cy="513" r="1.9" opacity="0.43"/><circle cx="267" cy="642" r="0.6" opacity="0.54"/><circle cx="169" cy="129" r="2.2" opacity="0.57"/><circle cx="668" cy="72" r="1.3" opacity="0.83"/><circle cx="680" cy="586" r="0.4" opacity="0.20"/><circle cx="589" cy="403" r="0.5" opacity="0.74"/><circle cx="577" cy="662" r="0.7" opacity="0.22"/><circle cx="130" cy="34" r="2.3" opacity="0.45"/><circle cx="233" cy="561" r="1.3" opacity="0.68"/><circle cx="298" cy="643" r="0.9" opacity="0.41"/><circle cx="575" cy="344" r="1.4" opacity="0.73"/><circle cx="409" cy="64" r="1.3" opacity="0.71"/><circle cx="100" cy="242" r="1.9" opacity="0.42"/><circle cx="16" cy="439" r="1.9" opacity="0.52"/><circle cx="596" cy="708" r="0.9" opacity="0.34"/><circle cx="2" cy="546" r="2.4" opacity="0.19"/><circle cx="197" cy="553" r="2.0" opacity="0.70"/><circle cx="159" cy="30" r="1.4" opacity="0.77"/><circle cx="607" cy="669" r="1.9" opacity="0.55"/><circle cx="666" cy="613" r="2.0" opacity="0.42"/><circle cx="781" cy="766" r="1.7" opacity="0.76"/><circle cx="397" cy="580" r="0.8" opacity="0.79"/><circle cx="97" cy="211" r="1.4" opacity="0.68"/><circle cx="183" cy="312" r="2.1" opacity="0.21"/><circle cx="528" cy="470" r="1.8" opacity="0.49"/><circle cx="112" cy="120" r="0.4" opacity="0.37"/><circle cx="470" cy="681" r="2.2" opacity="0.65"/><circle cx="414" cy="435" r="2.2" opacity="0.69"/><circle cx="48" cy="286" r="1.9" opacity="0.24"/><circle cx="284" cy="386" r="2.1" opacity="0.83"/><circle cx="340" cy="518" r="0.7" opacity="0.27"/><circle cx="315" cy="487" r="0.8" opacity="0.83"/><circle cx="760" cy="578" r="0.5" opacity="0.45"/><circle cx="584" cy="99" r="2.2" opacity="0.79"/><circle cx="34" cy="245" r="2.1" opacity="0.49"/><circle cx="203" cy="302" r="0.7" opacity="0.34"/><circle cx="286" cy="613" r="1.8" opacity="0.80"/><circle cx="152" cy="477" r="1.5" opacity="0.19"/><circle cx="120" cy="445" r="1.8" opacity="0.35"/><circle cx="728" cy="640" r="1.5" opacity="0.85"/><circle cx="336" cy="45" r="1.6" opacity="0.21"/><circle cx="767" cy="353" r="1.5" opacity="0.78"/><circle cx="322" cy="295" r="1.9" opacity="0.81"/><circle cx="367" cy="460" r="1.8" opacity="0.83"/><circle cx="407" cy="557" r="0.6" opacity="0.58"/><circle cx="385" cy="497" r="0.6" opacity="0.63"/><circle cx="530" cy="737" r="1.8" opacity="0.23"/><circle cx="598" cy="446" r="0.8" opacity="0.59"/><circle cx="333" cy="304" r="0.6" opacity="0.68"/><circle cx="326" cy="192" r="2.2" opacity="0.31"/><circle cx="82" cy="164" r="1.2" opacity="0.37"/><circle cx="293" cy="382" r="2.0" opacity="0.71"/><circle cx="208" cy="27" r="1.5" opacity="0.45"/><circle cx="427" cy="11" r="0.8" opacity="0.32"/><circle cx="618" cy="76" r="0.4" opacity="0.42"/><circle cx="204" cy="288" r="2.4" opacity="0.69"/><circle cx="407" cy="555" r="0.9" opacity="0.54"/><circle cx="247" cy="750" r="0.9" opacity="0.42"/><circle cx="534" cy="54" r="2.2" opacity="0.52"/><circle cx="560" cy="211" r="0.8" opacity="0.53"/><circle cx="363" cy="324" r="0.7" opacity="0.19"/><circle cx="364" cy="369" r="1.9" opacity="0.30"/><circle cx="745" cy="373" r="1.5" opacity="0.52"/><circle cx="301" cy="212" r="2.1" opacity="0.42"/><circle cx="103" cy="130" r="1.5" opacity="0.66"/><circle cx="493" cy="544" r="0.7" opacity="0.20"/><circle cx="193" cy="479" r="0.8" opacity="0.22"/><circle cx="292" cy="377" r="2.3" opacity="0.49"/><circle cx="777" cy="508" r="0.5" opacity="0.68"/><circle cx="598" cy="146" r="0.7" opacity="0.43"/><circle cx="509" cy="649" r="0.5" opacity="0.22"/><circle cx="486" cy="756" r="1.1" opacity="0.42"/><circle cx="764" cy="380" r="0.9" opacity="0.74"/></g>
<g fill="none" stroke="hsl(197 75% 68%)" stroke-width="2" opacity=".45"><ellipse cx="400" cy="520" rx="154" ry="50" transform="rotate(4 400 520)"/><ellipse cx="400" cy="520" rx="219" ry="73" transform="rotate(-14 400 520)"/><ellipse cx="400" cy="520" rx="285" ry="98" transform="rotate(-21 400 520)"/></g>
<g fill="url(#shape)" opacity=".82" filter="url(#glow)"><circle cx="400" cy="520" r="105"/><circle class="cut" cx="445" cy="460" r="110"/></g>
<path d="M0 985 Q200 885 400 955 T800 935V1200H0Z" fill="#07070a" opacity=".9"/>
<g fill="none" stroke="hsl(82 68% 65%)" opacity=".3"><path d="M0 980H800"/><path d="M0 1000H800"/><path d="M0 1025H800"/></g>
<rect width="800" height="1200" filter="url(#grain)" opacity=".065"/>
</svg>